<mxfile host="app.diagrams.net" agent="Mozilla/5.0 (Windows NT 10.0; Win64; x64) AppleWebKit/537.36 (KHTML, like Gecko) Chrome/130.0.0.0 Safari/537.36" version="24.8.4">
  <diagram name="Page-1" id="Ilj7QW8zmRlikJi-4j6I">
    <mxGraphModel dx="2593" dy="1373" grid="1" gridSize="10" guides="1" tooltips="1" connect="1" arrows="1" fold="1" page="1" pageScale="1" pageWidth="827" pageHeight="1169" math="0" shadow="0">
      <root>
        <mxCell id="0" />
        <mxCell id="1" parent="0" />
        <mxCell id="zfrFvyMvTlC5Qpoi9PpR-1" style="edgeStyle=orthogonalEdgeStyle;rounded=0;orthogonalLoop=1;jettySize=auto;html=1;exitX=0.5;exitY=1;exitDx=0;exitDy=0;entryX=0.5;entryY=0;entryDx=0;entryDy=0;" edge="1" parent="1" source="zfrFvyMvTlC5Qpoi9PpR-2" target="zfrFvyMvTlC5Qpoi9PpR-5">
          <mxGeometry relative="1" as="geometry" />
        </mxCell>
        <mxCell id="zfrFvyMvTlC5Qpoi9PpR-2" value="&lt;font style=&quot;font-size: 14px;&quot; face=&quot;Verdana&quot;&gt;Retrieve Person List by EventID&lt;/font&gt;" style="rounded=1;whiteSpace=wrap;html=1;" vertex="1" parent="1">
          <mxGeometry x="355" y="240" width="220" height="100" as="geometry" />
        </mxCell>
        <mxCell id="zfrFvyMvTlC5Qpoi9PpR-3" style="edgeStyle=orthogonalEdgeStyle;rounded=0;orthogonalLoop=1;jettySize=auto;html=1;exitX=0.5;exitY=1;exitDx=0;exitDy=0;entryX=0.5;entryY=0;entryDx=0;entryDy=0;" edge="1" parent="1" source="zfrFvyMvTlC5Qpoi9PpR-5" target="zfrFvyMvTlC5Qpoi9PpR-11">
          <mxGeometry relative="1" as="geometry" />
        </mxCell>
        <mxCell id="zfrFvyMvTlC5Qpoi9PpR-4" style="edgeStyle=orthogonalEdgeStyle;rounded=0;orthogonalLoop=1;jettySize=auto;html=1;exitX=1;exitY=0.5;exitDx=0;exitDy=0;entryX=0;entryY=0.5;entryDx=0;entryDy=0;" edge="1" parent="1" source="zfrFvyMvTlC5Qpoi9PpR-5" target="zfrFvyMvTlC5Qpoi9PpR-7">
          <mxGeometry relative="1" as="geometry">
            <mxPoint x="650" y="494.5882352941178" as="targetPoint" />
          </mxGeometry>
        </mxCell>
        <mxCell id="zfrFvyMvTlC5Qpoi9PpR-5" value="&lt;font style=&quot;font-size: 14px;&quot; face=&quot;Verdana&quot;&gt;Person List&amp;nbsp;&lt;br&gt;Ä°s Empty ?&amp;nbsp;&lt;/font&gt;" style="rhombus;whiteSpace=wrap;html=1;" vertex="1" parent="1">
          <mxGeometry x="372.5" y="410" width="185" height="190" as="geometry" />
        </mxCell>
        <mxCell id="zfrFvyMvTlC5Qpoi9PpR-6" style="edgeStyle=orthogonalEdgeStyle;rounded=0;orthogonalLoop=1;jettySize=auto;html=1;exitX=0.5;exitY=1;exitDx=0;exitDy=0;entryX=0.5;entryY=0;entryDx=0;entryDy=0;" edge="1" parent="1" source="zfrFvyMvTlC5Qpoi9PpR-7" target="zfrFvyMvTlC5Qpoi9PpR-27">
          <mxGeometry relative="1" as="geometry" />
        </mxCell>
        <mxCell id="zfrFvyMvTlC5Qpoi9PpR-7" value="&lt;font style=&quot;font-size: 14px;&quot; face=&quot;Verdana&quot;&gt;Calculate Total and Average (moneyPaid)&lt;/font&gt;" style="rounded=1;whiteSpace=wrap;html=1;" vertex="1" parent="1">
          <mxGeometry x="660" y="300" width="220" height="110" as="geometry" />
        </mxCell>
        <mxCell id="zfrFvyMvTlC5Qpoi9PpR-8" style="edgeStyle=orthogonalEdgeStyle;rounded=0;orthogonalLoop=1;jettySize=auto;html=1;exitX=0.5;exitY=1;exitDx=0;exitDy=0;entryX=0.5;entryY=0;entryDx=0;entryDy=0;" edge="1" parent="1" source="zfrFvyMvTlC5Qpoi9PpR-9" target="zfrFvyMvTlC5Qpoi9PpR-15">
          <mxGeometry relative="1" as="geometry" />
        </mxCell>
        <mxCell id="zfrFvyMvTlC5Qpoi9PpR-9" value="&lt;font style=&quot;font-size: 14px;&quot; face=&quot;Verdana&quot;&gt;Classify Each Person into two stacks according to amount they paid , whether it is higher or lower than the average&lt;/font&gt;&lt;div&gt;&lt;br&gt;&lt;/div&gt;" style="rounded=1;whiteSpace=wrap;html=1;" vertex="1" parent="1">
          <mxGeometry x="650" y="840" width="220" height="150" as="geometry" />
        </mxCell>
        <mxCell id="zfrFvyMvTlC5Qpoi9PpR-10" style="edgeStyle=orthogonalEdgeStyle;rounded=0;orthogonalLoop=1;jettySize=auto;html=1;exitX=0;exitY=0.5;exitDx=0;exitDy=0;entryX=0.5;entryY=0;entryDx=0;entryDy=0;" edge="1" parent="1" source="zfrFvyMvTlC5Qpoi9PpR-11" target="zfrFvyMvTlC5Qpoi9PpR-25">
          <mxGeometry relative="1" as="geometry" />
        </mxCell>
        <mxCell id="zfrFvyMvTlC5Qpoi9PpR-11" value="&lt;font size=&quot;3&quot; face=&quot;Verdana&quot;&gt;Set Average and Total = 0&lt;/font&gt;" style="rounded=1;whiteSpace=wrap;html=1;" vertex="1" parent="1">
          <mxGeometry x="370" y="720" width="190" height="80" as="geometry" />
        </mxCell>
        <mxCell id="zfrFvyMvTlC5Qpoi9PpR-12" value="&lt;font style=&quot;font-size: 14px;&quot; face=&quot;Verdana&quot;&gt;Return The Person List&amp;nbsp;&lt;br&gt;&lt;/font&gt;" style="ellipse;whiteSpace=wrap;html=1;" vertex="1" parent="1">
          <mxGeometry x="645" y="1770" width="250" height="130" as="geometry" />
        </mxCell>
        <mxCell id="zfrFvyMvTlC5Qpoi9PpR-13" style="edgeStyle=orthogonalEdgeStyle;rounded=0;orthogonalLoop=1;jettySize=auto;html=1;exitX=0.5;exitY=1;exitDx=0;exitDy=0;entryX=0.5;entryY=0;entryDx=0;entryDy=0;" edge="1" parent="1" source="zfrFvyMvTlC5Qpoi9PpR-15" target="zfrFvyMvTlC5Qpoi9PpR-17">
          <mxGeometry relative="1" as="geometry" />
        </mxCell>
        <mxCell id="zfrFvyMvTlC5Qpoi9PpR-14" style="edgeStyle=orthogonalEdgeStyle;rounded=0;orthogonalLoop=1;jettySize=auto;html=1;exitX=0;exitY=0.5;exitDx=0;exitDy=0;entryX=0.5;entryY=0;entryDx=0;entryDy=0;" edge="1" parent="1" source="zfrFvyMvTlC5Qpoi9PpR-15" target="zfrFvyMvTlC5Qpoi9PpR-12">
          <mxGeometry relative="1" as="geometry">
            <Array as="points">
              <mxPoint x="540" y="1190" />
              <mxPoint x="540" y="1620" />
              <mxPoint x="770" y="1620" />
            </Array>
          </mxGeometry>
        </mxCell>
        <mxCell id="zfrFvyMvTlC5Qpoi9PpR-15" value="&lt;font face=&quot;Verdana&quot;&gt;&lt;span style=&quot;font-size: 14px;&quot;&gt;While Both Stacks&amp;nbsp;&lt;br&gt;are&amp;nbsp;&lt;br&gt;Non-Empty&lt;/span&gt;&lt;/font&gt;" style="rhombus;whiteSpace=wrap;html=1;" vertex="1" parent="1">
          <mxGeometry x="635" y="1090" width="250" height="200" as="geometry" />
        </mxCell>
        <mxCell id="zfrFvyMvTlC5Qpoi9PpR-16" style="edgeStyle=orthogonalEdgeStyle;rounded=0;orthogonalLoop=1;jettySize=auto;html=1;exitX=1;exitY=0.5;exitDx=0;exitDy=0;entryX=1;entryY=0.5;entryDx=0;entryDy=0;" edge="1" parent="1" source="zfrFvyMvTlC5Qpoi9PpR-17" target="zfrFvyMvTlC5Qpoi9PpR-15">
          <mxGeometry relative="1" as="geometry" />
        </mxCell>
        <mxCell id="zfrFvyMvTlC5Qpoi9PpR-17" value="&lt;font style=&quot;font-size: 14px;&quot; face=&quot;Verdana&quot;&gt;Calculate how much debt is owed for each person which below the average and place it in a list&amp;nbsp;&amp;nbsp;&lt;br&gt;also delete the current person from stack&amp;nbsp;&lt;/font&gt;" style="rounded=1;whiteSpace=wrap;html=1;" vertex="1" parent="1">
          <mxGeometry x="617.5" y="1430" width="285" height="150" as="geometry" />
        </mxCell>
        <mxCell id="zfrFvyMvTlC5Qpoi9PpR-18" style="edgeStyle=orthogonalEdgeStyle;rounded=0;orthogonalLoop=1;jettySize=auto;html=1;exitX=0.5;exitY=1;exitDx=0;exitDy=0;entryX=0.5;entryY=0;entryDx=0;entryDy=0;" edge="1" parent="1" source="zfrFvyMvTlC5Qpoi9PpR-19" target="zfrFvyMvTlC5Qpoi9PpR-2">
          <mxGeometry relative="1" as="geometry" />
        </mxCell>
        <mxCell id="zfrFvyMvTlC5Qpoi9PpR-19" value="&lt;font style=&quot;font-size: 14px;&quot; face=&quot;Verdana&quot;&gt;Start&lt;/font&gt;" style="ellipse;whiteSpace=wrap;html=1;" vertex="1" parent="1">
          <mxGeometry x="372.5" y="10" width="185" height="120" as="geometry" />
        </mxCell>
        <mxCell id="zfrFvyMvTlC5Qpoi9PpR-20" value="&lt;font style=&quot;font-size: 14px;&quot; face=&quot;Verdana&quot;&gt;True&lt;/font&gt;" style="text;html=1;align=center;verticalAlign=middle;resizable=0;points=[];autosize=1;strokeColor=none;fillColor=none;" vertex="1" parent="1">
          <mxGeometry x="710" y="1330" width="50" height="30" as="geometry" />
        </mxCell>
        <mxCell id="zfrFvyMvTlC5Qpoi9PpR-21" value="&lt;font style=&quot;font-size: 14px;&quot; face=&quot;Verdana&quot;&gt;False&lt;/font&gt;" style="text;html=1;align=center;verticalAlign=middle;resizable=0;points=[];autosize=1;strokeColor=none;fillColor=none;" vertex="1" parent="1">
          <mxGeometry x="560" y="1160" width="60" height="30" as="geometry" />
        </mxCell>
        <mxCell id="zfrFvyMvTlC5Qpoi9PpR-22" value="&lt;font style=&quot;font-size: 14px;&quot; face=&quot;Verdana&quot;&gt;True&lt;/font&gt;" style="text;html=1;align=center;verticalAlign=middle;resizable=0;points=[];autosize=1;strokeColor=none;fillColor=none;" vertex="1" parent="1">
          <mxGeometry x="470" y="640" width="50" height="30" as="geometry" />
        </mxCell>
        <mxCell id="zfrFvyMvTlC5Qpoi9PpR-23" value="&lt;font face=&quot;Verdana&quot; style=&quot;font-size: 14px;&quot;&gt;False&lt;/font&gt;" style="text;html=1;align=center;verticalAlign=middle;resizable=0;points=[];autosize=1;strokeColor=none;fillColor=none;" vertex="1" parent="1">
          <mxGeometry x="550" y="420" width="60" height="30" as="geometry" />
        </mxCell>
        <mxCell id="zfrFvyMvTlC5Qpoi9PpR-24" style="edgeStyle=orthogonalEdgeStyle;rounded=0;orthogonalLoop=1;jettySize=auto;html=1;exitX=0.583;exitY=1.033;exitDx=0;exitDy=0;exitPerimeter=0;" edge="1" parent="1" source="zfrFvyMvTlC5Qpoi9PpR-25">
          <mxGeometry relative="1" as="geometry">
            <mxPoint x="760" y="1700" as="targetPoint" />
            <mxPoint x="250" y="1290" as="sourcePoint" />
            <Array as="points">
              <mxPoint x="250" y="1213" />
              <mxPoint x="250" y="1700" />
            </Array>
          </mxGeometry>
        </mxCell>
        <mxCell id="zfrFvyMvTlC5Qpoi9PpR-25" value="&lt;font style=&quot;font-size: 14px;&quot; face=&quot;Verdana&quot;&gt;Create Empty Person List&amp;nbsp;&lt;/font&gt;" style="rounded=1;whiteSpace=wrap;html=1;" vertex="1" parent="1">
          <mxGeometry x="140" y="1120" width="200" height="90" as="geometry" />
        </mxCell>
        <mxCell id="zfrFvyMvTlC5Qpoi9PpR-26" style="edgeStyle=orthogonalEdgeStyle;rounded=0;orthogonalLoop=1;jettySize=auto;html=1;exitX=1;exitY=0.5;exitDx=0;exitDy=0;entryX=0;entryY=0.5;entryDx=0;entryDy=0;" edge="1" parent="1" source="zfrFvyMvTlC5Qpoi9PpR-27" target="zfrFvyMvTlC5Qpoi9PpR-30">
          <mxGeometry relative="1" as="geometry" />
        </mxCell>
        <mxCell id="zfrFvyMvTlC5Qpoi9PpR-27" value="&lt;font style=&quot;font-size: 14px;&quot; face=&quot;Verdana&quot;&gt;&amp;nbsp;is total&amp;nbsp; or averages are integer&amp;nbsp;&amp;nbsp;&lt;/font&gt;" style="rhombus;whiteSpace=wrap;html=1;" vertex="1" parent="1">
          <mxGeometry x="665" y="540" width="210" height="180" as="geometry" />
        </mxCell>
        <mxCell id="zfrFvyMvTlC5Qpoi9PpR-28" value="&lt;font style=&quot;font-size: 14px;&quot; face=&quot;Verdana&quot;&gt;True&lt;/font&gt;" style="text;html=1;align=center;verticalAlign=middle;resizable=0;points=[];autosize=1;strokeColor=none;fillColor=none;" vertex="1" parent="1">
          <mxGeometry x="720" y="745" width="50" height="30" as="geometry" />
        </mxCell>
        <mxCell id="zfrFvyMvTlC5Qpoi9PpR-29" style="edgeStyle=orthogonalEdgeStyle;rounded=0;orthogonalLoop=1;jettySize=auto;html=1;exitX=0.5;exitY=0;exitDx=0;exitDy=0;" edge="1" parent="1" source="zfrFvyMvTlC5Qpoi9PpR-30">
          <mxGeometry relative="1" as="geometry">
            <mxPoint x="770" y="470" as="targetPoint" />
            <Array as="points">
              <mxPoint x="1135" y="470" />
              <mxPoint x="770" y="470" />
            </Array>
          </mxGeometry>
        </mxCell>
        <mxCell id="zfrFvyMvTlC5Qpoi9PpR-30" value="&lt;font style=&quot;font-size: 14px;&quot; face=&quot;Verdana&quot;&gt;Round the number and do it integer&lt;/font&gt;" style="rounded=1;whiteSpace=wrap;html=1;" vertex="1" parent="1">
          <mxGeometry x="1000" y="500" width="270" height="100" as="geometry" />
        </mxCell>
        <mxCell id="zfrFvyMvTlC5Qpoi9PpR-31" value="&lt;font style=&quot;font-size: 14px;&quot; face=&quot;Verdana&quot;&gt;False&lt;/font&gt;" style="text;html=1;align=center;verticalAlign=middle;resizable=0;points=[];autosize=1;strokeColor=none;fillColor=none;" vertex="1" parent="1">
          <mxGeometry x="880" y="569" width="60" height="30" as="geometry" />
        </mxCell>
        <mxCell id="zfrFvyMvTlC5Qpoi9PpR-32" style="edgeStyle=orthogonalEdgeStyle;rounded=0;orthogonalLoop=1;jettySize=auto;html=1;exitX=0.5;exitY=1;exitDx=0;exitDy=0;entryX=0.543;entryY=0.014;entryDx=0;entryDy=0;entryPerimeter=0;" edge="1" parent="1" source="zfrFvyMvTlC5Qpoi9PpR-27" target="zfrFvyMvTlC5Qpoi9PpR-9">
          <mxGeometry relative="1" as="geometry" />
        </mxCell>
      </root>
    </mxGraphModel>
  </diagram>
</mxfile>
